<?xml version="1.0" encoding="utf-8" standalone="no"?>
<!DOCTYPE svg PUBLIC "-//W3C//DTD SVG 1.1//EN"
  "http://www.w3.org/Graphics/SVG/1.1/DTD/svg11.dtd">
<svg height="345.6pt" version="1.1" viewBox="0 0 460.8 345.6" width="460.8pt" xmlns="http://www.w3.org/2000/svg" xmlns:xlink="http://www.w3.org/1999/xlink">
 <metadata>
  <rdf:RDF xmlns:cc="http://creativecommons.org/ns#" xmlns:dc="http://purl.org/dc/elements/1.1/" xmlns:rdf="http://www.w3.org/1999/02/22-rdf-syntax-ns#">
   <cc:Work>
    <dc:type rdf:resource="http://purl.org/dc/dcmitype/StillImage"/>
    <dc:date>2021-07-31T12:19:49.363312</dc:date>
    <dc:format>image/svg+xml</dc:format>
    <dc:creator>
     <cc:Agent>
      <dc:title>Matplotlib v3.4.2, https://matplotlib.org/</dc:title>
     </cc:Agent>
    </dc:creator>
   </cc:Work>
  </rdf:RDF>
 </metadata>
 <defs>
  <style type="text/css">*{stroke-linecap:butt;stroke-linejoin:round;}</style>
 </defs>
 <g id="figure_1">
  <g id="patch_1">
   <path d="M 0 345.6 
L 460.8 345.6 
L 460.8 0 
L 0 0 
z
" style="fill:#ffffff;"/>
  </g>
  <g id="axes_1">
   <g id="patch_2">
    <path d="M 356.511842 174.495373 
C 356.511842 160.41401 354.038957 146.441426 349.20606 133.215395 
C 344.373164 119.989364 337.254924 107.714228 328.176252 96.950284 
C 319.09758 86.18634 308.19874 77.099889 295.977208 70.105682 
C 283.755676 63.111474 270.400274 58.31757 256.520606 55.942785 
C 242.640938 53.568 228.451445 53.649025 214.599803 56.182162 
C 200.74816 58.715299 187.448376 63.661411 175.307515 70.794733 
C 163.166655 77.928056 152.372294 87.138379 143.417139 98.005301 
C 134.461984 108.872222 127.484392 121.227848 122.802853 134.508209 
C 118.121314 147.788569 115.808158 161.788483 115.968968 175.868928 
C 116.129779 189.949373 118.762071 203.892806 123.745695 217.062782 
C 128.729319 230.232759 135.987277 242.425803 145.188282 253.085366 
C 154.389288 263.744929 165.391184 272.706321 177.691794 279.560501 
C 189.992403 286.414682 203.401681 291.055754 217.307564 293.271877 
C 231.213447 295.488 245.40109 295.244935 259.2229 292.553776 
C 273.044711 289.862617 286.287143 284.764943 298.345749 277.493436 
C 310.404354 270.221929 321.092828 260.888934 329.923298 249.920453 
L 236.236484 174.495373 
L 356.511842 174.495373 
z
" style="fill:#1f77b4;"/>
   </g>
   <g id="patch_3">
    <path d="M 329.923298 249.920453 
C 330.096945 249.704763 330.269847 249.488473 330.442 249.271589 
C 330.614153 249.054705 330.785557 248.837227 330.956208 248.619159 
L 236.236484 174.495373 
L 329.923298 249.920453 
z
" style="fill:#ff7f0e;"/>
   </g>
   <g id="patch_4">
    <path d="M 330.956208 248.619159 
C 331.854396 247.471402 332.731648 246.307414 333.587529 245.127772 
C 334.44341 243.94813 335.27778 242.753029 336.090224 241.543061 
L 236.236484 174.495373 
L 330.956208 248.619159 
z
" style="fill:#2ca02c;"/>
   </g>
   <g id="patch_5">
    <path d="M 336.090224 241.543061 
C 341.512985 233.466973 345.935994 224.762746 349.262226 215.621318 
C 352.588459 206.479889 354.793414 196.968594 355.828724 187.296072 
L 236.236484 174.495373 
L 336.090224 241.543061 
z
" style="fill:#d62728;"/>
   </g>
   <g id="patch_6">
    <path d="M 355.828724 187.296072 
C 355.870086 186.909643 355.909575 186.523015 355.947189 186.136203 
C 355.984803 185.749391 356.020542 185.362398 356.054405 184.97524 
L 236.236484 174.495373 
L 355.828724 187.296072 
z
" style="fill:#9467bd;"/>
   </g>
   <g id="patch_7">
    <path d="M 356.054405 184.97524 
C 356.117898 184.249314 356.174792 183.522826 356.225082 182.795866 
C 356.275371 182.068905 356.319052 181.341503 356.356121 180.613749 
L 236.236484 174.495373 
L 356.054405 184.97524 
z
" style="fill:#8c564b;"/>
   </g>
   <g id="patch_8">
    <path d="M 356.356121 180.613749 
C 356.408018 179.594887 356.446949 178.575405 356.472905 177.555552 
C 356.498862 176.535699 356.511842 175.515558 356.511842 174.495374 
L 236.236484 174.495373 
L 356.356121 180.613749 
z
" style="fill:#e377c2;"/>
   </g>
   <g id="matplotlib.axis_1"/>
   <g id="matplotlib.axis_2"/>
   <g id="text_1">
    <!-- 89.21% -->
    <g transform="translate(149.111461 153.26245)scale(0.1 -0.1)">
     <defs>
      <path d="M 2034 2216 
Q 1584 2216 1326 1975 
Q 1069 1734 1069 1313 
Q 1069 891 1326 650 
Q 1584 409 2034 409 
Q 2484 409 2743 651 
Q 3003 894 3003 1313 
Q 3003 1734 2745 1975 
Q 2488 2216 2034 2216 
z
M 1403 2484 
Q 997 2584 770 2862 
Q 544 3141 544 3541 
Q 544 4100 942 4425 
Q 1341 4750 2034 4750 
Q 2731 4750 3128 4425 
Q 3525 4100 3525 3541 
Q 3525 3141 3298 2862 
Q 3072 2584 2669 2484 
Q 3125 2378 3379 2068 
Q 3634 1759 3634 1313 
Q 3634 634 3220 271 
Q 2806 -91 2034 -91 
Q 1263 -91 848 271 
Q 434 634 434 1313 
Q 434 1759 690 2068 
Q 947 2378 1403 2484 
z
M 1172 3481 
Q 1172 3119 1398 2916 
Q 1625 2713 2034 2713 
Q 2441 2713 2670 2916 
Q 2900 3119 2900 3481 
Q 2900 3844 2670 4047 
Q 2441 4250 2034 4250 
Q 1625 4250 1398 4047 
Q 1172 3844 1172 3481 
z
" id="DejaVuSans-38" transform="scale(0.015625)"/>
      <path d="M 703 97 
L 703 672 
Q 941 559 1184 500 
Q 1428 441 1663 441 
Q 2288 441 2617 861 
Q 2947 1281 2994 2138 
Q 2813 1869 2534 1725 
Q 2256 1581 1919 1581 
Q 1219 1581 811 2004 
Q 403 2428 403 3163 
Q 403 3881 828 4315 
Q 1253 4750 1959 4750 
Q 2769 4750 3195 4129 
Q 3622 3509 3622 2328 
Q 3622 1225 3098 567 
Q 2575 -91 1691 -91 
Q 1453 -91 1209 -44 
Q 966 3 703 97 
z
M 1959 2075 
Q 2384 2075 2632 2365 
Q 2881 2656 2881 3163 
Q 2881 3666 2632 3958 
Q 2384 4250 1959 4250 
Q 1534 4250 1286 3958 
Q 1038 3666 1038 3163 
Q 1038 2656 1286 2365 
Q 1534 2075 1959 2075 
z
" id="DejaVuSans-39" transform="scale(0.015625)"/>
      <path d="M 684 794 
L 1344 794 
L 1344 0 
L 684 0 
L 684 794 
z
" id="DejaVuSans-2e" transform="scale(0.015625)"/>
      <path d="M 1228 531 
L 3431 531 
L 3431 0 
L 469 0 
L 469 531 
Q 828 903 1448 1529 
Q 2069 2156 2228 2338 
Q 2531 2678 2651 2914 
Q 2772 3150 2772 3378 
Q 2772 3750 2511 3984 
Q 2250 4219 1831 4219 
Q 1534 4219 1204 4116 
Q 875 4013 500 3803 
L 500 4441 
Q 881 4594 1212 4672 
Q 1544 4750 1819 4750 
Q 2544 4750 2975 4387 
Q 3406 4025 3406 3419 
Q 3406 3131 3298 2873 
Q 3191 2616 2906 2266 
Q 2828 2175 2409 1742 
Q 1991 1309 1228 531 
z
" id="DejaVuSans-32" transform="scale(0.015625)"/>
      <path d="M 794 531 
L 1825 531 
L 1825 4091 
L 703 3866 
L 703 4441 
L 1819 4666 
L 2450 4666 
L 2450 531 
L 3481 531 
L 3481 0 
L 794 0 
L 794 531 
z
" id="DejaVuSans-31" transform="scale(0.015625)"/>
      <path d="M 4653 2053 
Q 4381 2053 4226 1822 
Q 4072 1591 4072 1178 
Q 4072 772 4226 539 
Q 4381 306 4653 306 
Q 4919 306 5073 539 
Q 5228 772 5228 1178 
Q 5228 1588 5073 1820 
Q 4919 2053 4653 2053 
z
M 4653 2450 
Q 5147 2450 5437 2106 
Q 5728 1763 5728 1178 
Q 5728 594 5436 251 
Q 5144 -91 4653 -91 
Q 4153 -91 3862 251 
Q 3572 594 3572 1178 
Q 3572 1766 3864 2108 
Q 4156 2450 4653 2450 
z
M 1428 4353 
Q 1159 4353 1004 4120 
Q 850 3888 850 3481 
Q 850 3069 1003 2837 
Q 1156 2606 1428 2606 
Q 1700 2606 1854 2837 
Q 2009 3069 2009 3481 
Q 2009 3884 1853 4118 
Q 1697 4353 1428 4353 
z
M 4250 4750 
L 4750 4750 
L 1831 -91 
L 1331 -91 
L 4250 4750 
z
M 1428 4750 
Q 1922 4750 2215 4408 
Q 2509 4066 2509 3481 
Q 2509 2891 2217 2550 
Q 1925 2209 1428 2209 
Q 931 2209 642 2551 
Q 353 2894 353 3481 
Q 353 4063 643 4406 
Q 934 4750 1428 4750 
z
" id="DejaVuSans-25" transform="scale(0.015625)"/>
     </defs>
     <use xlink:href="#DejaVuSans-38"/>
     <use x="63.623047" xlink:href="#DejaVuSans-39"/>
     <use x="127.246094" xlink:href="#DejaVuSans-2e"/>
     <use x="159.033203" xlink:href="#DejaVuSans-32"/>
     <use x="222.65625" xlink:href="#DejaVuSans-31"/>
     <use x="286.279297" xlink:href="#DejaVuSans-25"/>
    </g>
   </g>
   <g id="text_2">
    <!-- Алкоголь -->
    <g transform="translate(339.862552 259.508586)scale(0.1 -0.1)">
     <defs>
      <path d="M 2188 4044 
L 1331 1722 
L 3047 1722 
L 2188 4044 
z
M 1831 4666 
L 2547 4666 
L 4325 0 
L 3669 0 
L 3244 1197 
L 1141 1197 
L 716 0 
L 50 0 
L 1831 4666 
z
" id="DejaVuSans-410" transform="scale(0.015625)"/>
      <path d="M 238 0 
L 238 478 
Q 806 566 981 959 
Q 1194 1513 1194 2928 
L 1194 3500 
L 3559 3500 
L 3559 0 
L 2984 0 
L 2984 3041 
L 1769 3041 
L 1769 2694 
Q 1769 1344 1494 738 
Q 1200 91 238 0 
z
" id="DejaVuSans-43b" transform="scale(0.015625)"/>
      <path d="M 581 3500 
L 1153 3500 
L 1153 1856 
L 2775 3500 
L 3481 3500 
L 2144 2147 
L 3653 0 
L 3009 0 
L 1769 1766 
L 1153 1141 
L 1153 0 
L 581 0 
L 581 3500 
z
" id="DejaVuSans-43a" transform="scale(0.015625)"/>
      <path d="M 1959 3097 
Q 1497 3097 1228 2736 
Q 959 2375 959 1747 
Q 959 1119 1226 758 
Q 1494 397 1959 397 
Q 2419 397 2687 759 
Q 2956 1122 2956 1747 
Q 2956 2369 2687 2733 
Q 2419 3097 1959 3097 
z
M 1959 3584 
Q 2709 3584 3137 3096 
Q 3566 2609 3566 1747 
Q 3566 888 3137 398 
Q 2709 -91 1959 -91 
Q 1206 -91 779 398 
Q 353 888 353 1747 
Q 353 2609 779 3096 
Q 1206 3584 1959 3584 
z
" id="DejaVuSans-43e" transform="scale(0.015625)"/>
      <path d="M 581 0 
L 581 3500 
L 3050 3500 
L 3050 3041 
L 1159 3041 
L 1159 0 
L 581 0 
z
" id="DejaVuSans-433" transform="scale(0.015625)"/>
      <path d="M 2781 1038 
Q 2781 1319 2576 1466 
Q 2372 1613 1978 1613 
L 1159 1613 
L 1159 459 
L 1978 459 
Q 2372 459 2576 607 
Q 2781 756 2781 1038 
z
M 581 3500 
L 1159 3500 
L 1159 2072 
L 2003 2072 
Q 2672 2072 3033 1817 
Q 3394 1563 3394 1038 
Q 3394 513 3033 256 
Q 2672 0 2003 0 
L 581 0 
L 581 3500 
z
" id="DejaVuSans-44c" transform="scale(0.015625)"/>
     </defs>
     <use xlink:href="#DejaVuSans-410"/>
     <use x="68.408203" xlink:href="#DejaVuSans-43b"/>
     <use x="132.324219" xlink:href="#DejaVuSans-43a"/>
     <use x="192.724609" xlink:href="#DejaVuSans-43e"/>
     <use x="253.90625" xlink:href="#DejaVuSans-433"/>
     <use x="306.445312" xlink:href="#DejaVuSans-43e"/>
     <use x="367.626953" xlink:href="#DejaVuSans-43b"/>
     <use x="431.542969" xlink:href="#DejaVuSans-44c"/>
    </g>
   </g>
   <g id="text_3">
    <!-- 0.22% -->
    <g transform="translate(276.8762 222.120478)scale(0.1 -0.1)">
     <defs>
      <path d="M 2034 4250 
Q 1547 4250 1301 3770 
Q 1056 3291 1056 2328 
Q 1056 1369 1301 889 
Q 1547 409 2034 409 
Q 2525 409 2770 889 
Q 3016 1369 3016 2328 
Q 3016 3291 2770 3770 
Q 2525 4250 2034 4250 
z
M 2034 4750 
Q 2819 4750 3233 4129 
Q 3647 3509 3647 2328 
Q 3647 1150 3233 529 
Q 2819 -91 2034 -91 
Q 1250 -91 836 529 
Q 422 1150 422 2328 
Q 422 3509 836 4129 
Q 1250 4750 2034 4750 
z
" id="DejaVuSans-30" transform="scale(0.015625)"/>
     </defs>
     <use xlink:href="#DejaVuSans-30"/>
     <use x="63.623047" xlink:href="#DejaVuSans-2e"/>
     <use x="95.410156" xlink:href="#DejaVuSans-32"/>
     <use x="159.033203" xlink:href="#DejaVuSans-32"/>
     <use x="222.65625" xlink:href="#DejaVuSans-25"/>
    </g>
   </g>
   <g id="text_4">
    <!-- Химия -->
    <g transform="translate(343.322634 254.950387)scale(0.1 -0.1)">
     <defs>
      <path d="M 403 4666 
L 1081 4666 
L 2241 2931 
L 3406 4666 
L 4084 4666 
L 2584 2425 
L 4184 0 
L 3506 0 
L 2194 1984 
L 872 0 
L 191 0 
L 1856 2491 
L 403 4666 
z
" id="DejaVuSans-425" transform="scale(0.015625)"/>
      <path d="M 3578 3500 
L 3578 0 
L 3006 0 
L 3006 2809 
L 1319 0 
L 581 0 
L 581 3500 
L 1153 3500 
L 1153 697 
L 2838 3500 
L 3578 3500 
z
" id="DejaVuSans-438" transform="scale(0.015625)"/>
      <path d="M 581 3500 
L 1422 3500 
L 2416 1156 
L 3413 3500 
L 4247 3500 
L 4247 0 
L 3669 0 
L 3669 2950 
L 2703 672 
L 2128 672 
L 1159 2950 
L 1159 0 
L 581 0 
L 581 3500 
z
" id="DejaVuSans-43c" transform="scale(0.015625)"/>
      <path d="M 1181 2491 
Q 1181 2231 1381 2084 
Q 1581 1938 1953 1938 
L 2728 1938 
L 2728 3041 
L 1953 3041 
Q 1581 3041 1381 2897 
Q 1181 2753 1181 2491 
z
M 363 0 
L 1431 1534 
Q 1069 1616 828 1830 
Q 588 2044 588 2491 
Q 588 2997 923 3248 
Q 1259 3500 1938 3500 
L 3306 3500 
L 3306 0 
L 2728 0 
L 2728 1478 
L 2013 1478 
L 981 0 
L 363 0 
z
" id="DejaVuSans-44f" transform="scale(0.015625)"/>
     </defs>
     <use xlink:href="#DejaVuSans-425"/>
     <use x="68.505859" xlink:href="#DejaVuSans-438"/>
     <use x="133.496094" xlink:href="#DejaVuSans-43c"/>
     <use x="208.935547" xlink:href="#DejaVuSans-438"/>
     <use x="273.925781" xlink:href="#DejaVuSans-44f"/>
    </g>
   </g>
   <g id="text_5">
    <!-- 1.16% -->
    <g transform="translate(278.763517 219.634188)scale(0.1 -0.1)">
     <defs>
      <path d="M 2113 2584 
Q 1688 2584 1439 2293 
Q 1191 2003 1191 1497 
Q 1191 994 1439 701 
Q 1688 409 2113 409 
Q 2538 409 2786 701 
Q 3034 994 3034 1497 
Q 3034 2003 2786 2293 
Q 2538 2584 2113 2584 
z
M 3366 4563 
L 3366 3988 
Q 3128 4100 2886 4159 
Q 2644 4219 2406 4219 
Q 1781 4219 1451 3797 
Q 1122 3375 1075 2522 
Q 1259 2794 1537 2939 
Q 1816 3084 2150 3084 
Q 2853 3084 3261 2657 
Q 3669 2231 3669 1497 
Q 3669 778 3244 343 
Q 2819 -91 2113 -91 
Q 1303 -91 875 529 
Q 447 1150 447 2328 
Q 447 3434 972 4092 
Q 1497 4750 2381 4750 
Q 2619 4750 2861 4703 
Q 3103 4656 3366 4563 
z
" id="DejaVuSans-36" transform="scale(0.015625)"/>
     </defs>
     <use xlink:href="#DejaVuSans-31"/>
     <use x="63.623047" xlink:href="#DejaVuSans-2e"/>
     <use x="95.410156" xlink:href="#DejaVuSans-31"/>
     <use x="159.033203" xlink:href="#DejaVuSans-36"/>
     <use x="222.65625" xlink:href="#DejaVuSans-25"/>
    </g>
   </g>
   <g id="text_6">
    <!-- Квартира -->
    <g transform="translate(360.564801 222.493287)scale(0.1 -0.1)">
     <defs>
      <path d="M 628 4666 
L 1259 4666 
L 1259 2359 
L 3516 4666 
L 4325 4666 
L 2522 2822 
L 4419 0 
L 3731 0 
L 2113 2403 
L 1259 1531 
L 1259 0 
L 628 0 
L 628 4666 
z
" id="DejaVuSans-41a" transform="scale(0.015625)"/>
      <path d="M 1156 1613 
L 1156 459 
L 1975 459 
Q 2369 459 2575 607 
Q 2781 756 2781 1038 
Q 2781 1319 2575 1466 
Q 2369 1613 1975 1613 
L 1156 1613 
z
M 1156 3041 
L 1156 2072 
L 1913 2072 
Q 2238 2072 2444 2201 
Q 2650 2331 2650 2563 
Q 2650 2794 2444 2917 
Q 2238 3041 1913 3041 
L 1156 3041 
z
M 581 3500 
L 1950 3500 
Q 2566 3500 2897 3275 
Q 3228 3050 3228 2634 
Q 3228 2313 3059 2123 
Q 2891 1934 2559 1888 
Q 2956 1813 3175 1575 
Q 3394 1338 3394 981 
Q 3394 513 3033 256 
Q 2672 0 2003 0 
L 581 0 
L 581 3500 
z
" id="DejaVuSans-432" transform="scale(0.015625)"/>
      <path d="M 2194 1759 
Q 1497 1759 1228 1600 
Q 959 1441 959 1056 
Q 959 750 1161 570 
Q 1363 391 1709 391 
Q 2188 391 2477 730 
Q 2766 1069 2766 1631 
L 2766 1759 
L 2194 1759 
z
M 3341 1997 
L 3341 0 
L 2766 0 
L 2766 531 
Q 2569 213 2275 61 
Q 1981 -91 1556 -91 
Q 1019 -91 701 211 
Q 384 513 384 1019 
Q 384 1609 779 1909 
Q 1175 2209 1959 2209 
L 2766 2209 
L 2766 2266 
Q 2766 2663 2505 2880 
Q 2244 3097 1772 3097 
Q 1472 3097 1187 3025 
Q 903 2953 641 2809 
L 641 3341 
Q 956 3463 1253 3523 
Q 1550 3584 1831 3584 
Q 2591 3584 2966 3190 
Q 3341 2797 3341 1997 
z
" id="DejaVuSans-430" transform="scale(0.015625)"/>
      <path d="M 1159 525 
L 1159 -1331 
L 581 -1331 
L 581 3500 
L 1159 3500 
L 1159 2969 
Q 1341 3281 1617 3432 
Q 1894 3584 2278 3584 
Q 2916 3584 3314 3078 
Q 3713 2572 3713 1747 
Q 3713 922 3314 415 
Q 2916 -91 2278 -91 
Q 1894 -91 1617 61 
Q 1341 213 1159 525 
z
M 3116 1747 
Q 3116 2381 2855 2742 
Q 2594 3103 2138 3103 
Q 1681 3103 1420 2742 
Q 1159 2381 1159 1747 
Q 1159 1113 1420 752 
Q 1681 391 2138 391 
Q 2594 391 2855 752 
Q 3116 1113 3116 1747 
z
" id="DejaVuSans-440" transform="scale(0.015625)"/>
      <path d="M 188 3500 
L 3541 3500 
L 3541 3041 
L 2147 3041 
L 2147 0 
L 1581 0 
L 1581 3041 
L 188 3041 
L 188 3500 
z
" id="DejaVuSans-442" transform="scale(0.015625)"/>
     </defs>
     <use xlink:href="#DejaVuSans-41a"/>
     <use x="70.996094" xlink:href="#DejaVuSans-432"/>
     <use x="129.931641" xlink:href="#DejaVuSans-430"/>
     <use x="191.210938" xlink:href="#DejaVuSans-440"/>
     <use x="254.6875" xlink:href="#DejaVuSans-442"/>
     <use x="312.939453" xlink:href="#DejaVuSans-438"/>
     <use x="377.929688" xlink:href="#DejaVuSans-440"/>
     <use x="441.40625" xlink:href="#DejaVuSans-430"/>
    </g>
   </g>
   <g id="text_7">
    <!-- 7.71% -->
    <g transform="translate(288.168335 201.930315)scale(0.1 -0.1)">
     <defs>
      <path d="M 525 4666 
L 3525 4666 
L 3525 4397 
L 1831 0 
L 1172 0 
L 2766 4134 
L 525 4134 
L 525 4666 
z
" id="DejaVuSans-37" transform="scale(0.015625)"/>
     </defs>
     <use xlink:href="#DejaVuSans-37"/>
     <use x="63.623047" xlink:href="#DejaVuSans-2e"/>
     <use x="95.410156" xlink:href="#DejaVuSans-37"/>
     <use x="159.033203" xlink:href="#DejaVuSans-31"/>
     <use x="222.65625" xlink:href="#DejaVuSans-25"/>
    </g>
   </g>
   <g id="text_8">
    <!-- Досуг -->
    <g transform="translate(367.918259 190.059661)scale(0.1 -0.1)">
     <defs>
      <path d="M 1459 531 
L 3522 531 
L 3522 4134 
L 2006 4134 
L 2006 3472 
Q 2006 1913 1656 878 
Q 1584 666 1459 531 
z
M 538 531 
Q 956 728 1075 1103 
Q 1378 2066 1378 3784 
L 1378 4666 
L 4153 4666 
L 4153 531 
L 4684 531 
L 4684 -1003 
L 4153 -1003 
L 4153 0 
L 847 0 
L 847 -1003 
L 316 -1003 
L 316 531 
L 538 531 
z
" id="DejaVuSans-414" transform="scale(0.015625)"/>
      <path d="M 3122 3366 
L 3122 2828 
Q 2878 2963 2633 3030 
Q 2388 3097 2138 3097 
Q 1578 3097 1268 2742 
Q 959 2388 959 1747 
Q 959 1106 1268 751 
Q 1578 397 2138 397 
Q 2388 397 2633 464 
Q 2878 531 3122 666 
L 3122 134 
Q 2881 22 2623 -34 
Q 2366 -91 2075 -91 
Q 1284 -91 818 406 
Q 353 903 353 1747 
Q 353 2603 823 3093 
Q 1294 3584 2113 3584 
Q 2378 3584 2631 3529 
Q 2884 3475 3122 3366 
z
" id="DejaVuSans-441" transform="scale(0.015625)"/>
      <path d="M 2059 -325 
Q 1816 -950 1584 -1140 
Q 1353 -1331 966 -1331 
L 506 -1331 
L 506 -850 
L 844 -850 
Q 1081 -850 1212 -737 
Q 1344 -625 1503 -206 
L 1606 56 
L 191 3500 
L 800 3500 
L 1894 763 
L 2988 3500 
L 3597 3500 
L 2059 -325 
z
" id="DejaVuSans-443" transform="scale(0.015625)"/>
     </defs>
     <use xlink:href="#DejaVuSans-414"/>
     <use x="78.125" xlink:href="#DejaVuSans-43e"/>
     <use x="139.306641" xlink:href="#DejaVuSans-441"/>
     <use x="194.287109" xlink:href="#DejaVuSans-443"/>
     <use x="253.466797" xlink:href="#DejaVuSans-433"/>
    </g>
   </g>
   <g id="text_9">
    <!-- 0.31% -->
    <g transform="translate(292.179313 184.239246)scale(0.1 -0.1)">
     <defs>
      <path d="M 2597 2516 
Q 3050 2419 3304 2112 
Q 3559 1806 3559 1356 
Q 3559 666 3084 287 
Q 2609 -91 1734 -91 
Q 1441 -91 1130 -33 
Q 819 25 488 141 
L 488 750 
Q 750 597 1062 519 
Q 1375 441 1716 441 
Q 2309 441 2620 675 
Q 2931 909 2931 1356 
Q 2931 1769 2642 2001 
Q 2353 2234 1838 2234 
L 1294 2234 
L 1294 2753 
L 1863 2753 
Q 2328 2753 2575 2939 
Q 2822 3125 2822 3475 
Q 2822 3834 2567 4026 
Q 2313 4219 1838 4219 
Q 1578 4219 1281 4162 
Q 984 4106 628 3988 
L 628 4550 
Q 988 4650 1302 4700 
Q 1616 4750 1894 4750 
Q 2613 4750 3031 4423 
Q 3450 4097 3450 3541 
Q 3450 3153 3228 2886 
Q 3006 2619 2597 2516 
z
" id="DejaVuSans-33" transform="scale(0.015625)"/>
     </defs>
     <use xlink:href="#DejaVuSans-30"/>
     <use x="63.623047" xlink:href="#DejaVuSans-2e"/>
     <use x="95.410156" xlink:href="#DejaVuSans-33"/>
     <use x="159.033203" xlink:href="#DejaVuSans-31"/>
     <use x="222.65625" xlink:href="#DejaVuSans-25"/>
    </g>
   </g>
   <g id="text_10">
    <!-- Транспорт -->
    <g transform="translate(368.223941 186.38529)scale(0.1 -0.1)">
     <defs>
      <path d="M -19 4666 
L 3928 4666 
L 3928 4134 
L 2272 4134 
L 2272 0 
L 1638 0 
L 1638 4134 
L -19 4134 
L -19 4666 
z
" id="DejaVuSans-422" transform="scale(0.015625)"/>
      <path d="M 581 3500 
L 1159 3500 
L 1159 2072 
L 3025 2072 
L 3025 3500 
L 3603 3500 
L 3603 0 
L 3025 0 
L 3025 1613 
L 1159 1613 
L 1159 0 
L 581 0 
L 581 3500 
z
" id="DejaVuSans-43d" transform="scale(0.015625)"/>
      <path d="M 3603 3500 
L 3603 0 
L 3025 0 
L 3025 3041 
L 1159 3041 
L 1159 0 
L 581 0 
L 581 3500 
L 3603 3500 
z
" id="DejaVuSans-43f" transform="scale(0.015625)"/>
     </defs>
     <use xlink:href="#DejaVuSans-422"/>
     <use x="61.083984" xlink:href="#DejaVuSans-440"/>
     <use x="124.560547" xlink:href="#DejaVuSans-430"/>
     <use x="185.839844" xlink:href="#DejaVuSans-43d"/>
     <use x="251.220703" xlink:href="#DejaVuSans-441"/>
     <use x="306.201172" xlink:href="#DejaVuSans-43f"/>
     <use x="371.582031" xlink:href="#DejaVuSans-43e"/>
     <use x="432.763672" xlink:href="#DejaVuSans-440"/>
     <use x="496.240234" xlink:href="#DejaVuSans-442"/>
    </g>
   </g>
   <g id="text_11">
    <!-- 0.58% -->
    <g transform="translate(292.346049 182.235044)scale(0.1 -0.1)">
     <defs>
      <path d="M 691 4666 
L 3169 4666 
L 3169 4134 
L 1269 4134 
L 1269 2991 
Q 1406 3038 1543 3061 
Q 1681 3084 1819 3084 
Q 2600 3084 3056 2656 
Q 3513 2228 3513 1497 
Q 3513 744 3044 326 
Q 2575 -91 1722 -91 
Q 1428 -91 1123 -41 
Q 819 9 494 109 
L 494 744 
Q 775 591 1075 516 
Q 1375 441 1709 441 
Q 2250 441 2565 725 
Q 2881 1009 2881 1497 
Q 2881 1984 2565 2268 
Q 2250 2553 1709 2553 
Q 1456 2553 1204 2497 
Q 953 2441 691 2322 
L 691 4666 
z
" id="DejaVuSans-35" transform="scale(0.015625)"/>
     </defs>
     <use xlink:href="#DejaVuSans-30"/>
     <use x="63.623047" xlink:href="#DejaVuSans-2e"/>
     <use x="95.410156" xlink:href="#DejaVuSans-35"/>
     <use x="159.033203" xlink:href="#DejaVuSans-38"/>
     <use x="222.65625" xlink:href="#DejaVuSans-25"/>
    </g>
   </g>
   <g id="text_12">
    <!-- Еда -->
    <g transform="translate(368.496548 180.620945)scale(0.1 -0.1)">
     <defs>
      <path d="M 628 4666 
L 3578 4666 
L 3578 4134 
L 1259 4134 
L 1259 2753 
L 3481 2753 
L 3481 2222 
L 1259 2222 
L 1259 531 
L 3634 531 
L 3634 0 
L 628 0 
L 628 4666 
z
" id="DejaVuSans-415" transform="scale(0.015625)"/>
      <path d="M 1384 459 
L 3053 459 
L 3053 3041 
L 1844 3041 
L 1844 2603 
Q 1844 1316 1475 628 
L 1384 459 
z
M 550 459 
Q 834 584 959 850 
Q 1266 1509 1266 2838 
L 1266 3500 
L 3631 3500 
L 3631 459 
L 4091 459 
L 4091 -884 
L 3631 -884 
L 3631 0 
L 794 0 
L 794 -884 
L 334 -884 
L 334 459 
L 550 459 
z
" id="DejaVuSans-434" transform="scale(0.015625)"/>
     </defs>
     <use xlink:href="#DejaVuSans-415"/>
     <use x="63.183594" xlink:href="#DejaVuSans-434"/>
     <use x="132.324219" xlink:href="#DejaVuSans-430"/>
    </g>
   </g>
   <g id="text_13">
    <!-- 0.81% -->
    <g transform="translate(292.494743 179.090856)scale(0.1 -0.1)">
     <use xlink:href="#DejaVuSans-30"/>
     <use x="63.623047" xlink:href="#DejaVuSans-2e"/>
     <use x="95.410156" xlink:href="#DejaVuSans-38"/>
     <use x="159.033203" xlink:href="#DejaVuSans-31"/>
     <use x="222.65625" xlink:href="#DejaVuSans-25"/>
    </g>
   </g>
   <g id="legend_1">
    <g id="patch_9">
     <path d="M 320.27 137.54075 
L 407.72 137.54075 
Q 409.72 137.54075 409.72 135.54075 
L 409.72 48.472 
Q 409.72 46.472 407.72 46.472 
L 320.27 46.472 
Q 318.27 46.472 318.27 48.472 
L 318.27 135.54075 
Q 318.27 137.54075 320.27 137.54075 
z
" style="fill:#ffffff;opacity:0.8;stroke:#cccccc;stroke-linejoin:miter;"/>
    </g>
    <g id="patch_10">
     <path d="M 322.27 58.070438 
L 342.27 58.070438 
L 342.27 51.070438 
L 322.27 51.070438 
z
" style="fill:#ff7f0e;"/>
    </g>
    <g id="text_14">
     <!-- Алкоголь -->
     <g transform="translate(350.27 58.070438)scale(0.1 -0.1)">
      <use xlink:href="#DejaVuSans-410"/>
      <use x="68.408203" xlink:href="#DejaVuSans-43b"/>
      <use x="132.324219" xlink:href="#DejaVuSans-43a"/>
      <use x="192.724609" xlink:href="#DejaVuSans-43e"/>
      <use x="253.90625" xlink:href="#DejaVuSans-433"/>
      <use x="306.445312" xlink:href="#DejaVuSans-43e"/>
      <use x="367.626953" xlink:href="#DejaVuSans-43b"/>
      <use x="431.542969" xlink:href="#DejaVuSans-44c"/>
     </g>
    </g>
    <g id="patch_11">
     <path d="M 322.27 72.748563 
L 342.27 72.748563 
L 342.27 65.748563 
L 322.27 65.748563 
z
" style="fill:#2ca02c;"/>
    </g>
    <g id="text_15">
     <!-- Химия -->
     <g transform="translate(350.27 72.748563)scale(0.1 -0.1)">
      <use xlink:href="#DejaVuSans-425"/>
      <use x="68.505859" xlink:href="#DejaVuSans-438"/>
      <use x="133.496094" xlink:href="#DejaVuSans-43c"/>
      <use x="208.935547" xlink:href="#DejaVuSans-438"/>
      <use x="273.925781" xlink:href="#DejaVuSans-44f"/>
     </g>
    </g>
    <g id="patch_12">
     <path d="M 322.27 87.426688 
L 342.27 87.426688 
L 342.27 80.426688 
L 322.27 80.426688 
z
" style="fill:#d62728;"/>
    </g>
    <g id="text_16">
     <!-- Квартира -->
     <g transform="translate(350.27 87.426688)scale(0.1 -0.1)">
      <use xlink:href="#DejaVuSans-41a"/>
      <use x="70.996094" xlink:href="#DejaVuSans-432"/>
      <use x="129.931641" xlink:href="#DejaVuSans-430"/>
      <use x="191.210938" xlink:href="#DejaVuSans-440"/>
      <use x="254.6875" xlink:href="#DejaVuSans-442"/>
      <use x="312.939453" xlink:href="#DejaVuSans-438"/>
      <use x="377.929688" xlink:href="#DejaVuSans-440"/>
      <use x="441.40625" xlink:href="#DejaVuSans-430"/>
     </g>
    </g>
    <g id="patch_13">
     <path d="M 322.27 102.104813 
L 342.27 102.104813 
L 342.27 95.104813 
L 322.27 95.104813 
z
" style="fill:#9467bd;"/>
    </g>
    <g id="text_17">
     <!-- Досуг -->
     <g transform="translate(350.27 102.104813)scale(0.1 -0.1)">
      <use xlink:href="#DejaVuSans-414"/>
      <use x="78.125" xlink:href="#DejaVuSans-43e"/>
      <use x="139.306641" xlink:href="#DejaVuSans-441"/>
      <use x="194.287109" xlink:href="#DejaVuSans-443"/>
      <use x="253.466797" xlink:href="#DejaVuSans-433"/>
     </g>
    </g>
    <g id="patch_14">
     <path d="M 322.27 116.782938 
L 342.27 116.782938 
L 342.27 109.782938 
L 322.27 109.782938 
z
" style="fill:#8c564b;"/>
    </g>
    <g id="text_18">
     <!-- Транспорт -->
     <g transform="translate(350.27 116.782938)scale(0.1 -0.1)">
      <use xlink:href="#DejaVuSans-422"/>
      <use x="61.083984" xlink:href="#DejaVuSans-440"/>
      <use x="124.560547" xlink:href="#DejaVuSans-430"/>
      <use x="185.839844" xlink:href="#DejaVuSans-43d"/>
      <use x="251.220703" xlink:href="#DejaVuSans-441"/>
      <use x="306.201172" xlink:href="#DejaVuSans-43f"/>
      <use x="371.582031" xlink:href="#DejaVuSans-43e"/>
      <use x="432.763672" xlink:href="#DejaVuSans-440"/>
      <use x="496.240234" xlink:href="#DejaVuSans-442"/>
     </g>
    </g>
    <g id="patch_15">
     <path d="M 322.27 131.461063 
L 342.27 131.461063 
L 342.27 124.461063 
L 322.27 124.461063 
z
" style="fill:#e377c2;"/>
    </g>
    <g id="text_19">
     <!-- Еда -->
     <g transform="translate(350.27 131.461063)scale(0.1 -0.1)">
      <use xlink:href="#DejaVuSans-415"/>
      <use x="63.183594" xlink:href="#DejaVuSans-434"/>
      <use x="132.324219" xlink:href="#DejaVuSans-430"/>
     </g>
    </g>
   </g>
  </g>
 </g>
</svg>
